<?xml version="1.0" standalone="no"?>
<!DOCTYPE svg PUBLIC "-//W3C//DTD SVG 20010904//EN"
 "http://www.w3.org/TR/2001/REC-SVG-20010904/DTD/svg10.dtd">
<svg version="1.0" xmlns="http://www.w3.org/2000/svg"
 width="512.000000pt" height="512.000000pt" viewBox="0 0 512.000000 512.000000"
 preserveAspectRatio="xMidYMid meet">

<g transform="translate(0.000000,512.000000) scale(0.100000,-0.100000)"
fill="#000000" stroke="none">
<path d="M2481 4814 c-23 -30 -26 -61 -10 -98 19 -42 2 -93 -49 -148 -49 -53
-153 -121 -327 -213 -348 -185 -464 -280 -512 -417 -25 -72 -23 -212 3 -289
l20 -56 -116 -6 c-175 -9 -274 -51 -377 -160 -96 -102 -133 -196 -133 -336 0
-111 25 -196 80 -275 22 -31 40 -59 40 -61 0 -3 -17 -5 -38 -5 -109 0 -249
-64 -343 -159 -307 -307 -148 -822 279 -908 42 -8 78 -16 79 -17 1 -1 65 -296
143 -656 78 -360 146 -668 152 -683 6 -15 19 -32 29 -38 12 -6 435 -9 1165 -9
1267 0 1183 -5 1202 63 5 18 69 324 142 679 l133 646 78 15 c168 33 309 139
381 287 107 221 68 454 -106 625 -96 95 -227 155 -338 155 -21 0 -38 2 -38 5
0 3 16 27 36 55 108 151 114 383 13 541 -35 56 -132 150 -178 174 -81 41 -146
57 -268 62 -68 3 -123 7 -123 8 0 1 9 37 21 81 26 101 36 290 20 376 -32 169
-101 299 -225 423 -157 158 -393 281 -661 346 -113 27 -149 25 -174 -7z m329
-215 c476 -178 665 -507 538 -937 l-21 -72 -771 2 -771 3 -24 60 c-14 35 -26
88 -29 127 -10 158 45 212 433 423 210 114 311 180 378 247 49 49 97 135 97
176 0 21 3 23 33 17 17 -4 79 -25 137 -46z m878 -1179 c117 -16 204 -77 259
-182 25 -47 28 -63 28 -148 0 -80 -4 -103 -25 -145 -34 -70 -108 -139 -176
-164 -55 -21 -60 -21 -1227 -19 l-1172 3 -50 24 c-63 32 -124 92 -155 156 -21
42 -25 64 -25 145 0 89 2 99 34 158 53 97 138 157 244 172 75 11 2190 11 2265
0z m464 -855 c157 -67 242 -192 242 -355 0 -71 -4 -94 -27 -143 -49 -108 -112
-168 -216 -208 -51 -19 -84 -19 -1591 -19 -1507 0 -1540 0 -1591 19 -102 39
-167 101 -214 203 -95 208 25 451 255 514 35 10 378 12 1570 11 1502 -2 1526
-2 1572 -22z m-2537 -1510 l151 -610 -124 -3 c-69 -1 -127 0 -130 3 -3 3 -63
267 -132 588 -70 320 -130 595 -134 610 l-7 28 113 -3 113 -3 150 -610z m865
0 l0 -615 -275 0 c-151 0 -275 2 -275 5 0 5 -287 1177 -296 1208 -5 16 20 17
420 17 l426 0 0 -615z m1006 598 c-10 -37 -296 -1199 -296 -1206 0 -4 -124 -7
-275 -7 l-275 0 0 615 0 615 426 0 c400 0 425 -1 420 -17z m390 0 c-2 -10 -60
-287 -127 -615 l-123 -598 -138 0 c-105 0 -136 3 -133 13 2 6 70 278 150 602
80 325 147 596 150 603 3 8 36 12 115 12 101 0 111 -2 106 -17z"/>
</g>
</svg>
