<svg xmlns="http://www.w3.org/2000/svg">
  <symbol id="icon-instagram" viewBox="0 0 32 32">
<path d="M31.897 9.445c-0.018-1.344-0.27-2.674-0.745-3.931-0.412-1.061-1.040-2.024-1.846-2.828s-1.77-1.432-2.833-1.843c-1.243-0.466-2.557-0.718-3.884-0.745-1.709-0.076-2.252-0.098-6.591-0.098s-4.896 0-6.593 0.098c-1.327 0.027-2.64 0.279-3.883 0.745-1.063 0.411-2.027 1.038-2.833 1.843s-1.434 1.768-1.846 2.828c-0.468 1.24-0.719 2.551-0.745 3.876-0.076 1.708-0.1 2.25-0.1 6.582s0 4.886 0.1 6.582c0.027 1.327 0.277 2.636 0.745 3.88 0.412 1.061 1.041 2.023 1.847 2.827s1.771 1.431 2.834 1.842c1.239 0.485 2.552 0.755 3.883 0.798 1.711 0.076 2.253 0.099 6.593 0.099s4.896 0 6.593-0.099c1.328-0.026 2.641-0.277 3.884-0.743 1.062-0.411 2.027-1.039 2.832-1.843s1.434-1.767 1.847-2.828c0.467-1.242 0.718-2.551 0.745-3.88 0.076-1.707 0.1-2.248 0.1-6.582-0.004-4.332-0.004-4.882-0.103-6.58zM15.988 24.164c-4.538 0-8.215-3.67-8.215-8.201s3.677-8.201 8.215-8.201c2.179 0 4.268 0.864 5.809 2.402s2.406 3.624 2.406 5.799-0.866 4.261-2.406 5.799c-1.541 1.538-3.63 2.402-5.809 2.402zM24.53 9.37c-0.252 0-0.501-0.049-0.733-0.145s-0.444-0.237-0.622-0.415c-0.178-0.178-0.319-0.389-0.415-0.621s-0.146-0.481-0.145-0.732c0-0.251 0.050-0.5 0.146-0.732s0.237-0.443 0.415-0.62c0.178-0.178 0.389-0.318 0.621-0.414s0.481-0.146 0.733-0.146c0.251 0 0.5 0.049 0.733 0.146s0.443 0.237 0.621 0.414c0.178 0.178 0.319 0.388 0.415 0.62s0.146 0.48 0.146 0.732c0 1.057-0.857 1.912-1.914 1.912z"></path>
<path d="M15.987 21.29c2.947 0 5.336-2.385 5.336-5.327s-2.389-5.327-5.336-5.327c-2.947 0-5.336 2.385-5.336 5.327s2.389 5.327 5.336 5.327z"></path>
</symbol>
<symbol id="icon-viber" viewBox="0 0 32 32">
<path d="M16.005 0c-4.243 0.004-8.311 1.691-11.311 4.69s-4.688 7.065-4.694 11.307c-0.003 3.020 0.845 5.963 2.446 8.511l0.379 0.604-1.617 5.902 6.058-1.587 0.582 0.347c2.467 1.459 5.281 2.229 8.147 2.227h0.003c4.242-0.006 8.308-1.693 11.307-4.691s4.688-7.063 4.694-11.303c0.007-2.102-0.402-4.184-1.206-6.126s-1.984-3.706-3.474-5.189c-1.482-1.491-3.245-2.674-5.188-3.479s-4.025-1.217-6.128-1.212zM25.415 22.869c-0.402 1.125-2.324 2.146-3.246 2.284-1.011 0.174-2.049 0.109-3.031-0.19-0.931-0.288-1.846-0.626-2.741-1.012-4.827-2.082-7.977-6.937-8.221-7.261-0.238-0.321-1.96-2.609-1.96-4.973 0-2.368 1.241-3.531 1.681-4.013 0.162-0.183 0.359-0.33 0.58-0.433s0.461-0.159 0.705-0.165c0.321 0 0.64 0.003 0.922 0.016 0.296 0.013 0.691-0.112 1.080 0.826 0.402 0.964 1.366 3.328 1.485 3.569 0.119 0.238 0.199 0.52 0.042 0.842-0.161 0.325-0.238 0.521-0.482 0.803-0.238 0.283-0.505 0.627-0.72 0.845-0.241 0.238-0.492 0.498-0.212 0.98 0.283 0.479 1.247 2.056 2.674 3.332 1.838 1.639 3.391 2.143 3.869 2.387 0.482 0.238 0.762 0.202 1.044-0.122 0.28-0.325 1.202-1.404 1.523-1.883 0.321-0.482 0.64-0.402 1.083-0.244 0.44 0.164 2.806 1.324 3.285 1.565 0.476 0.238 0.8 0.36 0.922 0.562 0.116 0.199 0.116 1.16-0.283 2.284z"></path>
</symbol>
<symbol id="icon-printerest" viewBox="0 0 32 32">
<path d="M16.010 0c-3.731-0.002-7.345 1.299-10.218 3.679s-4.824 5.689-5.515 9.355c-0.692 3.666-0.080 7.458 1.728 10.721s4.7 5.792 8.175 7.149c-0.14-1.266-0.268-3.212 0.054-4.594 0.292-1.25 1.876-7.954 1.876-7.954s-0.478-0.958-0.478-2.374c0-2.226 1.29-3.886 2.896-3.886 1.364 0 2.024 1.024 2.024 2.254 0 1.372-0.874 3.424-1.326 5.326-0.376 1.592 0.8 2.892 2.37 2.892 2.844 0 5.030-3 5.030-7.328 0-3.83-2.754-6.508-6.684-6.508-4.552 0-7.224 3.414-7.224 6.942 0 1.376 0.53 2.85 1.19 3.652 0.057 0.060 0.097 0.135 0.117 0.215s0.018 0.165-0.005 0.245c-0.122 0.504-0.392 1.592-0.444 1.814-0.070 0.292-0.232 0.354-0.536 0.214-2-0.93-3.248-3.852-3.248-6.2 0-5.046 3.668-9.68 10.572-9.68 5.55 0 9.864 3.954 9.864 9.24 0 5.514-3.478 9.952-8.302 9.952-1.622 0-3.146-0.842-3.668-1.838l-0.996 3.804c-0.362 1.39-1.338 3.132-1.99 4.194 2.2 0.68 4.521 0.878 6.804 0.579s4.475-1.087 6.426-2.311c1.951-1.224 3.614-2.854 4.877-4.78s2.095-4.101 2.44-6.378c0.345-2.277 0.194-4.601-0.442-6.814s-1.742-4.263-3.243-6.009c-1.501-1.746-3.361-3.148-5.453-4.11s-4.367-1.46-6.67-1.462z"></path>
</symbol>
<symbol id="icon-facebook" viewBox="0 0 32 32">
<path d="M32 16.098c0-8.891-7.163-16.098-15.998-16.098-8.839 0.002-16.002 7.207-16.002 16.1 0 8.033 5.851 14.692 13.498 15.9v-11.249h-4.059v-4.651h4.064v-3.55c0-4.033 2.39-6.261 6.043-6.261 1.752 0 3.582 0.314 3.582 0.314v3.959h-2.018c-1.986 0-2.606 1.242-2.606 2.516v3.020h4.435l-0.708 4.651h-3.73v11.249c7.647-1.208 13.498-7.867 13.498-15.9z"></path>
</symbol>
<symbol id="icon-burger" viewBox="0 0 21 32">
<path d="M10.041 5.299c-0.23 0.104-0.384 0.441-0.282 0.627 0.016 0.033 0.132 0.167 0.252 0.296 0.455 0.485 0.825 1.153 1.030 1.86 0.118 0.4 0.167 0.74 0.184 1.214l0.016 0.433-0.107-0.022c-0.205-0.041-0.775-0.019-1.003 0.041-0.945 0.252-1.666 0.929-1.948 1.827-0.104 0.334-0.137 0.603-0.121 0.967 0.052 1.17 0.877 2.175 2.033 2.488 0.367 0.099 0.918 0.104 1.268 0.016 0.805-0.205 1.414-0.704 1.797-1.477 0.411-0.827 0.37-1.732-0.123-2.6-0.145-0.255-0.469-0.592-0.762-0.792l-0.2-0.137 0.016-0.137c0.008-0.077 0.016-0.282 0.016-0.46v-0.323l0.145 0.022c0.077 0.011 0.255 0.022 0.389 0.019 0.77-0.008 1.425-0.31 1.989-0.91 0.219-0.236 0.416-0.545 0.548-0.86 0.112-0.269 0.216-0.688 0.216-0.866 0-0.131-0.008-0.148-0.085-0.195-0.222-0.137-1.055-0.148-1.477-0.022-0.479 0.145-0.816 0.34-1.159 0.674-0.277 0.266-0.381 0.411-0.57 0.781l-0.156 0.301-0.033-0.164c-0.044-0.203-0.186-0.616-0.326-0.94-0.266-0.608-0.863-1.463-1.148-1.638-0.115-0.071-0.277-0.079-0.403-0.025zM10.934 10.627c0.030 0.036 0.052 0.107 0.052 0.164 0 0.184-0.151 0.351-0.427 0.471-0.512 0.225-0.896 0.671-1.090 1.268-0.112 0.345-0.181 0.405-0.326 0.29-0.118-0.093-0.189-0.329-0.189-0.63 0-0.619 0.321-1.181 0.83-1.452 0.282-0.151 0.46-0.192 0.803-0.184 0.274 0.005 0.301 0.011 0.348 0.071z"></path>
<path d="M8.118 10.079c-0.258 0.088-0.455 0.205-0.652 0.384-0.074 0.069-1.704 1.685-3.619 3.592-3.178 3.164-3.493 3.485-3.608 3.682-0.225 0.386-0.211 0.101-0.211 4.422 0 3.748 0 3.838 0.055 4.011 0.153 0.499 0.581 0.858 1.11 0.929 0.244 0.033 0.112 0.049 1.863-0.208 1.014-0.148 3.973-0.578 4.521-0.658 0.151-0.022 0.614-0.088 1.027-0.151 0.414-0.060 1.296-0.192 1.959-0.288s1.545-0.227 1.959-0.288c0.414-0.063 1.425-0.208 2.247-0.329s2.090-0.304 2.822-0.411c0.732-0.107 1.619-0.236 1.973-0.285 0.474-0.069 0.693-0.112 0.822-0.164 0.586-0.238 0.962-0.729 1.069-1.397 0.036-0.23 0.036-7.096-0.003-7.392-0.052-0.416-0.274-0.8-0.608-1.049-0.11-0.082-1.071-0.575-2.704-1.386-1.395-0.69-2.94-1.46-3.438-1.707-0.496-0.247-0.907-0.447-0.912-0.444-0.003 0.005 0.025 0.074 0.060 0.156 0.184 0.416 0.274 0.912 0.258 1.405l-0.014 0.353 1.797 0.888c0.989 0.49 2.049 1.014 2.359 1.167l0.562 0.277-0.11 0.019c-0.131 0.025-0.923 0.142-2.205 0.326-0.904 0.129-5.222 0.759-6.37 0.929-0.301 0.047-0.893 0.131-1.315 0.192s-1.236 0.181-1.808 0.263c-0.573 0.082-1.471 0.214-2 0.29-0.526 0.077-1.285 0.186-1.685 0.244s-0.729 0.104-0.732 0.101c-0.008-0.011 0.389-0.411 2.578-2.589l2.241-2.23-0.003-0.337c-0.005-0.4 0.047-0.745 0.167-1.096 0.142-0.416 0.373-0.822 0.63-1.107 0.11-0.121 0.17-0.195 0.156-0.195-0.005 0-0.112 0.036-0.236 0.079zM19.89 17.8l-0.014 1.145-0.069 0.008c-0.071 0.008-0.688 0.099-1.836 0.266-0.353 0.052-0.91 0.131-1.233 0.178s-1.31 0.189-2.192 0.318c-0.882 0.129-2.151 0.312-2.822 0.408s-1.466 0.214-1.767 0.258c-0.301 0.044-0.647 0.096-0.767 0.11-0.121 0.016-0.732 0.104-1.356 0.195s-2.123 0.307-3.329 0.479c-2.581 0.37-2.742 0.395-2.844 0.414l-0.074 0.016v-1.142c0-0.885 0.008-1.142 0.036-1.151 0.033-0.011 1.805-0.268 3.293-0.479 0.781-0.11 1.011-0.142 3.027-0.438 0.625-0.093 1.556-0.227 2.069-0.304 2.216-0.323 3.984-0.581 4.493-0.655 0.923-0.137 2.581-0.378 3-0.438 0.219-0.030 0.841-0.121 1.384-0.203 0.542-0.079 0.992-0.142 1-0.137 0.008 0.003 0.008 0.521 0 1.153zM19.89 21.679v1.162l-0.499 0.071c-0.649 0.093-3.907 0.564-5.611 0.814-2.819 0.411-3.789 0.553-4.425 0.644-0.362 0.052-1.471 0.214-2.466 0.356-0.995 0.145-2.37 0.342-3.055 0.441-0.989 0.14-1.962 0.282-2.205 0.321-0.019 0.003-0.027-0.395-0.027-1.145v-1.151l0.507-0.071c1.734-0.249 4.816-0.696 6.329-0.918 1.808-0.266 3.512-0.512 5.164-0.751 0.512-0.074 1.356-0.197 1.877-0.274s1.038-0.151 1.151-0.167c0.112-0.016 0.57-0.082 1.014-0.148s1.123-0.164 1.507-0.219c0.384-0.055 0.704-0.104 0.71-0.112 0.005-0.005 0.016-0.011 0.022-0.011s0.008 0.521 0.008 1.159z"></path>
</symbol>
<symbol id="icon-burger1" viewBox="0 0 21 32">
<path d="M12.288 2.778c-0.208 0.090-0.359 0.364-0.337 0.614 0.008 0.071 0.047 0.282 0.085 0.471 0.082 0.384 0.134 0.877 0.101 0.915-0.014 0.014-0.069-0.049-0.126-0.137-0.126-0.203-0.469-0.627-0.589-0.737-0.671-0.597-1.433-0.899-2.271-0.901-0.397 0-0.548 0.022-0.973 0.153-0.652 0.197-0.762 0.342-0.6 0.795 0.321 0.893 1.101 1.707 1.964 2.049 0.427 0.167 0.704 0.222 1.195 0.238 0.416 0.014 0.477 0.011 0.841-0.060 0.499-0.099 0.531-0.090 0.531 0.142 0 0.54-0.26 1.636-0.51 2.148-0.052 0.104-0.093 0.203-0.093 0.216 0 0.055-0.055 0.047-0.277-0.041-0.395-0.162-0.578-0.192-1.134-0.189-0.455 0-0.512 0.005-0.734 0.074-0.29 0.090-0.46 0.173-0.726 0.356-0.233 0.159-0.57 0.51-0.71 0.737-0.093 0.148-0.104 0.159-0.293 0.214-0.197 0.060-0.564 0.233-0.715 0.337-0.269 0.186-0.455 0.403-1.005 1.17-0.611 0.855-0.66 0.923-1.019 1.408-0.181 0.241-0.452 0.616-0.603 0.827-0.153 0.214-0.441 0.614-0.644 0.89s-0.479 0.658-0.616 0.847c-0.342 0.474-0.926 1.274-1.701 2.334-0.904 1.236-1.033 1.425-1.134 1.688-0.31 0.805-0.233 1.479 0.211 1.827 0.184 0.145 0.337 0.203 0.581 0.222 0.195 0.016-0.003 0.066 3.466-0.825 0.74-0.189 1.751-0.449 2.247-0.575 0.499-0.126 1.411-0.359 2.027-0.518 0.619-0.156 1.685-0.43 2.37-0.605s1.463-0.373 1.726-0.441c0.263-0.069 0.715-0.184 1-0.258 0.288-0.074 0.86-0.222 1.274-0.329 2.378-0.616 4.633-1.181 4.655-1.164 0.014 0.005 0.025 0.71 0.027 1.562l0.003 1.545-0.104 0.027c-0.055 0.014-0.742 0.189-1.526 0.386-1.321 0.334-2.041 0.518-2.795 0.712-0.164 0.044-0.888 0.227-1.603 0.411-1.682 0.43-2.271 0.581-4.082 1.044-0.822 0.211-1.858 0.477-2.301 0.592-0.444 0.112-1.238 0.315-1.767 0.449-2.433 0.619-4.466 1.126-4.721 1.175-0.31 0.058-0.477 0.123-0.584 0.225-0.285 0.268-0.362 0.732-0.175 1.052 0.137 0.233 0.425 0.4 0.693 0.4 0.142 0 1.164-0.249 3.389-0.827 0.241-0.063 1.085-0.279 1.877-0.479 1.403-0.353 2.614-0.666 5.781-1.479 0.852-0.219 1.784-0.46 2.069-0.534 0.288-0.074 0.811-0.208 1.164-0.299 2.236-0.575 4.63-1.181 4.663-1.181 0.030 0 0.027 1.189-0.005 1.674-0.044 0.63-0.145 0.942-0.395 1.222-0.351 0.389-0.995 0.638-2.89 1.121-2.096 0.532-3.433 0.871-4.181 1.066-0.392 0.099-1.285 0.329-1.986 0.507s-1.668 0.425-2.151 0.548c-4.318 1.104-6.674 1.696-7.131 1.792-0.499 0.107-0.663 0.181-0.803 0.351-0.332 0.416-0.208 1.055 0.252 1.29 0.244 0.126 0.408 0.112 1.236-0.101 0.381-0.099 0.959-0.247 1.282-0.329s1.145-0.293 1.822-0.468c0.679-0.173 1.715-0.438 2.301-0.592 0.589-0.151 1.304-0.334 1.589-0.408 0.288-0.077 1.181-0.304 1.986-0.51 0.805-0.203 1.545-0.395 1.644-0.422s0.573-0.151 1.055-0.274c0.482-0.123 1.227-0.315 1.658-0.422 3.164-0.808 3.6-0.929 4.211-1.173 0.77-0.307 1.337-0.756 1.682-1.34 0.205-0.348 0.381-0.923 0.436-1.427 0.038-0.359 0.038-7.833 0-8.173-0.14-1.236-0.764-2.071-2.26-3.022-0.381-0.241-1.504-0.819-1.951-1.003-0.693-0.285-1.931-0.715-2.381-0.827l-0.181-0.047-0.093-0.205c-0.274-0.6-0.756-1.003-1.395-1.164-0.225-0.058-0.649-0.129-0.767-0.129-0.052 0-0.096-0.005-0.096-0.011s0.049-0.115 0.11-0.244c0.332-0.707 0.644-1.838 0.753-2.718 0.121-0.978 0.079-2.359-0.088-2.871-0.049-0.159-0.178-0.315-0.301-0.364-0.112-0.047-0.326-0.047-0.433 0zM10.058 9.715c0.167 0.049 0.271 0.132 0.271 0.216 0 0.074-0.058 0.159-0.249 0.356-0.384 0.4-0.751 1.069-0.915 1.671-0.052 0.192-0.101 0.408-0.112 0.482-0.033 0.244-0.148 0.238-0.274-0.011-0.34-0.666-0.364-1.458-0.063-2.022 0.11-0.203 0.37-0.49 0.529-0.584 0.249-0.145 0.551-0.186 0.814-0.11zM7.578 12.512c0.093 0.29 0.37 0.871 0.54 1.137 0.263 0.411 0.712 0.89 1.101 1.181 0.26 0.195 0.742 0.433 1.033 0.512 0.753 0.205 1.814 0.055 2.504-0.362 0.893-0.537 1.562-1.392 1.874-2.403l0.096-0.304 0.082 0.016c0.386 0.082 1.542 0.542 2.241 0.893 0.877 0.438 1.51 0.86 1.929 1.288 0.214 0.219 0.419 0.49 0.419 0.559 0 0.044-0.033 0.055-1 0.299-1.581 0.4-5.86 1.493-6.973 1.778-0.384 0.099-1.277 0.329-1.986 0.51-0.707 0.181-1.718 0.438-2.247 0.573-3.616 0.923-5.175 1.318-5.184 1.307-0.005-0.005 0.038-0.069 0.096-0.142s0.299-0.4 0.534-0.723c0.236-0.323 0.521-0.712 0.63-0.863 0.112-0.151 0.485-0.663 0.827-1.137 0.345-0.474 0.688-0.951 0.767-1.055 0.148-0.2 0.362-0.493 0.822-1.126 0.151-0.205 0.452-0.619 0.671-0.918 0.219-0.296 0.551-0.753 0.74-1.014l0.34-0.474 0.027 0.093c0.014 0.052 0.066 0.222 0.115 0.375z"></path>
</symbol>
<symbol id="icon-burger-menu" viewBox="0 0 32 32">
<path d="M10.909 11.636l-7.273 7.273h12.994c10.376 0 12.945-0.145 12.945-0.63 0-2.861-2.812-8.436-5.527-10.958-1.115-1.067-1.261-1.067-1.261-0.291 0 0.485-0.339 1.309-0.824 1.794-0.679 0.776-0.679 0.97-0.049 1.697 1.164 1.358 1.358 2.424 0.776 4.024-0.485 1.455-2.473 2.909-3.976 2.909-0.388 0-1.358-0.582-2.182-1.261-1.794-1.503-2.036-3.782-0.533-5.673 0.533-0.679 0.97-1.455 0.97-1.697 0-0.873 2.473-3.491 3.297-3.491 0.727 0 0.727-0.097 0.097-0.485-0.388-0.242-1.067-0.485-1.455-0.485s-4.024 3.248-8 7.273z"></path>
<path d="M19.345 7.806c-0.533 0.533-0.873 1.115-0.776 1.261 0.339 0.291 2.715-1.406 2.764-1.939 0-0.679-0.97-0.339-1.988 0.679z"></path>
<path d="M17.309 11.539c-1.649 1.794-0.727 3.976 1.6 3.976 1.648 0 2.424-0.824 2.424-2.521 0-2.182-2.57-3.103-4.024-1.455z"></path>
<path d="M2.424 21.333c0 0.97 0.339 0.97 13.576 0.97s13.576 0 13.576-0.97c0-0.97-0.339-0.97-13.576-0.97s-13.576 0-13.576 0.97z"></path>
<path d="M2.424 24.727c0 0.291 4.848 0.485 13.576 0.485s13.576-0.194 13.576-0.485c0-0.291-4.849-0.485-13.576-0.485s-13.576 0.194-13.576 0.485z"></path>
<path d="M2.424 27.006c0.049 1.552 0.873 1.6 13.867 1.503 11.976-0.145 13.042-0.194 13.188-1.018 0.145-0.776-0.727-0.824-13.43-0.824-7.515 0-13.624 0.145-13.624 0.339z"></path>
</symbol>
<symbol id="burger-menu1" viewBox="0 0 32 32">
<path d="M3.345 3.345l-1.406 1.406v22.497l2.812 2.812h22.497l2.812-2.812v-22.497l-2.812-2.812h-22.497l-1.406 1.406zM28.218 3.733c0.776 0.727 0.873 1.745 0.873 12.17 0 9.939-0.097 11.539-0.824 12.315s-1.745 0.873-12.17 0.873c-9.939 0-11.539-0.097-12.315-0.824s-0.873-1.745-0.873-12.17c0-9.939 0.097-11.539 0.824-12.315s1.745-0.873 12.17-0.873c9.939 0 11.539 0.097 12.315 0.824z"></path>
<path d="M5.867 5.527c-0.339 0.388-0.533 1.649-0.436 2.812l0.145 2.085h5.333l0.145-2.085c0.194-2.618-0.485-3.491-2.812-3.491-1.018 0-2.085 0.291-2.376 0.679zM10.085 7.855c-0.145 1.988-0.242 2.085-1.794 2.23-1.842 0.194-2.473-0.436-2.473-2.376 0-1.649 0.291-1.891 2.521-1.891h1.891l-0.145 2.036z"></path>
<path d="M13.673 5.43c-0.339 0.339-0.582 1.503-0.582 2.618 0 1.164-0.194 2.23-0.485 2.376-0.242 0.145-0.485 0.776-0.485 1.358 0 1.745-0.776 2.57-1.6 1.842-0.436-0.339-1.649-0.533-2.861-0.436l-2.085 0.145v2.667c0 2.376 0.097 2.667 1.115 2.812 0.582 0.097 1.067 0.339 1.067 0.582s0.145 0.727 0.291 1.115c0.194 0.533-0.097 0.776-1.115 0.921-1.212 0.145-1.358 0.339-1.503 2.23-0.194 2.618 0.485 3.491 2.764 3.491 2.085 0 2.958-0.679 2.958-2.279 0-0.776 0.291-1.115 0.97-1.115s0.97 0.339 0.97 1.115c0 1.6 0.873 2.279 2.909 2.279 2.279 0 2.909-0.727 2.909-3.248 0-1.745 0.145-2.085 0.97-2.085s0.97 0.339 0.97 2.085c0 2.57 0.63 3.248 2.958 3.248 2.279 0 2.958-0.873 2.764-3.491-0.145-2.036-0.194-2.085-1.939-2.23-1.018-0.097-1.842-0.291-1.842-0.485 0.049-0.824 1.358-1.939 2.424-2.133 1.115-0.145 1.212-0.339 1.212-2.812v-2.667l-2.521-0.145c-2.133-0.145-2.57-0.291-2.57-1.067 0-0.485-0.533-1.552-1.212-2.327-0.679-0.824-1.212-1.988-1.212-2.618 0-1.649-0.873-2.327-2.909-2.327-0.97 0-1.988 0.242-2.327 0.582zM17.939 7.030c0 0.97-0.242 1.212-1.164 1.212-0.63 0-1.503 0.145-1.939 0.291-0.63 0.242-0.776-0.049-0.776-1.212 0-1.455 0.097-1.503 1.939-1.503 1.745 0 1.939 0.097 1.939 1.212zM19.248 10.279c0.63 0.582 1.115 1.455 1.115 1.891 0 0.485 0.679 1.649 1.455 2.521 1.794 2.085 1.891 3.83 0.194 5.527-0.97 0.97-1.552 1.164-2.861 0.97-1.067-0.194-2.23 0.049-3.442 0.679-3.733 1.891-6.982 0.485-6.982-3.055 0-1.358 1.842-3.782 2.861-3.782 0.291 0 0.776-0.97 1.067-2.182s1.018-2.521 1.552-2.909c1.503-1.067 3.733-0.873 5.042 0.339zM10.182 14.448c0 0.242-0.436 0.824-0.97 1.309s-0.97 1.164-0.97 1.551c0 1.212-2.182 0.533-2.327-0.727-0.291-1.988 0.242-2.521 2.327-2.521 1.067 0 1.939 0.194 1.939 0.388zM25.939 16c0 2.473-1.261 2.424-2.279 0l-0.824-1.988 1.552 0.145c1.406 0.145 1.552 0.291 1.552 1.842zM9.358 22.497c0.485 0.388 0.824 1.261 0.824 2.182 0 1.552-0.049 1.552-2.036 1.406-2.23-0.145-2.667-0.824-2.133-3.103 0.339-1.309 1.939-1.552 3.345-0.485zM17.939 24.291c0 1.891 0 1.891-1.939 1.891-1.745 0-1.939-0.145-1.939-1.164 0-1.164 2.667-3.394 3.491-2.909 0.194 0.145 0.388 1.115 0.388 2.182zM25.988 22.982c0.533 2.279 0.097 2.958-2.133 3.103l-2.036 0.145v-1.891c0-2.279 0.194-2.521 2.23-2.521 1.309 0 1.697 0.242 1.939 1.164z"></path>
<path d="M21.382 5.527c-0.339 0.388-0.533 1.649-0.436 2.812l0.145 2.085h5.333l0.145-2.085c0.194-2.618-0.485-3.491-2.812-3.491-1.018 0-2.085 0.291-2.376 0.679zM26.085 6.933c0.097 0.485 0.049 1.455-0.097 2.085-0.291 1.067-0.533 1.212-2.133 1.067-1.745-0.145-1.794-0.194-1.939-2.23l-0.145-2.085 2.085 0.145c1.552 0.097 2.133 0.388 2.23 1.018z"></path>
</symbol>
<symbol id="icon-burger-menu2" viewBox="0 0 32 32">
<path d="M12.481 2.325c-1.338 1.881-1.588 4.106-0.669 5.956 0.231 0.463 0.75 1.231 0.863 1.262 0.025 0.012 0.050-0.206 0.050-0.475 0.012-0.662 0.113-1.056 0.431-1.725 0.412-0.862 1.037-1.494 1.906-1.938 0.188-0.1 0.35-0.188 0.363-0.194s-0.063-0.225-0.162-0.481c-0.25-0.644-0.794-1.438-1.319-1.938-0.406-0.381-1.037-0.856-1.144-0.856-0.025 0-0.169 0.175-0.319 0.387z"></path>
<path d="M17.837 3.563c-0.275 0.106-0.825 1.125-1.006 1.869-0.056 0.213-0.063 0.219-0.519 0.294-1.281 0.219-2.45 1.294-2.781 2.556-0.119 0.475-0.119 1.338 0 1.806 0.469 1.8 2.338 2.963 4.137 2.581 0.731-0.156 1.231-0.431 1.775-0.975 0.731-0.731 1.056-1.512 1.056-2.525 0-1.556-1.1-2.994-2.581-3.375-0.206-0.056-0.381-0.112-0.4-0.125-0.063-0.069 0.294-0.938 0.538-1.3 0.269-0.406 0.306-0.538 0.181-0.694-0.113-0.131-0.244-0.169-0.4-0.112z"></path>
<path d="M20.844 7.45c0.363 0.8 0.469 1.913 0.262 2.737-0.369 1.425-1.462 2.6-2.856 3.063-0.563 0.188-1.563 0.231-2.188 0.1-0.819-0.169-1.769-0.731-2.281-1.338l-0.156-0.188-0.463 0.15c-0.906 0.287-1.738 0.319-2.7 0.106l-0.444-0.094-4.275 2.263c-2.35 1.25-4.3 2.294-4.331 2.319-0.038 0.031 6.431 0.056 14.613 0.056h14.681l-0.044-0.331c-0.137-1.050-0.512-2.344-0.95-3.287-0.45-0.963-1.019-1.762-1.831-2.575-1.581-1.575-3.531-2.544-6.331-3.15-0.406-0.088-0.762-0.156-0.794-0.156-0.038 0 0.006 0.15 0.087 0.325z"></path>
<path d="M9.338 7.969c-0.688 0.15-1.838 0.7-1.838 0.875 0 0.037 0.144 0.281 0.319 0.537 0.956 1.4 2.25 2.119 3.806 2.119 0.531 0 1.425-0.156 1.544-0.269 0.069-0.069-0.156-0.35-0.7-0.887-0.625-0.619-1.125-1.325-1.394-1.981-0.113-0.275-0.213-0.431-0.294-0.45-0.225-0.063-1.056-0.031-1.444 0.056z"></path>
<path d="M1.313 19.344v2.031h29.375v-4.063h-29.375v2.031z"></path>
<path d="M1.313 23.719v1.594h29.375v-3.188h-29.375v1.594z"></path>
<path d="M1.313 27.281c0 1.119 0.012 1.319 0.125 1.606 0.163 0.431 0.612 0.887 1.050 1.050 0.319 0.125 0.531 0.125 13.5 0.125 14.863 0 13.494 0.050 14.106-0.512 0.538-0.488 0.594-0.706 0.594-2.269v-1.281h-29.375v1.281z"></path>
</symbol>
<symbol id="icon-close" viewBox="0 0 32 32">
<path d="M11.15 0.188c-4.294 0.175-8.106 1.256-9.981 2.831-0.469 0.394-0.9 1.013-1.050 1.487-0.119 0.388-0.125 0.544-0.106 3.25l0.019 2.838 0.212 0.438c0.938 1.906 4.306 3.338 9.131 3.881 1.35 0.156 4.762 0.156 6.094 0.006 1.919-0.219 3.387-0.519 4.806-0.988 1.981-0.65 3.394-1.506 4.063-2.456 0.519-0.744 0.5-0.613 0.525-3.612 0.025-2.856 0-3.163-0.275-3.731-0.219-0.438-0.844-1.094-1.438-1.506-1.881-1.3-5.5-2.269-9.012-2.406-0.469-0.019-1.081-0.044-1.356-0.056-0.275-0.006-1.006 0.006-1.631 0.025zM13.75 1.438c0.706 0.038 1.631 0.106 2.063 0.156 3.325 0.406 6.075 1.369 7.269 2.563 0.381 0.381 0.494 0.606 0.494 0.969s-0.113 0.588-0.494 0.963c-1.831 1.813-6.787 2.944-11.906 2.719-1.344-0.056-1.556-0.075-2.644-0.219-2.487-0.338-4.787-1.081-6.156-2-0.694-0.463-1.125-1.025-1.125-1.463 0-0.431 0.444-1.019 1.119-1.462 1.919-1.275 5.369-2.131 9.069-2.244 0.294-0.012 0.644-0.025 0.781-0.031s0.825 0.019 1.531 0.050z"></path>
<path d="M0 15.363c0 2.319 0.006 2.475 0.131 2.837 0.669 1.988 4.050 3.544 9.025 4.144 1.744 0.212 5.144 0.188 6.931-0.050l0.55-0.075 0.175-0.469c0.931-2.556 3.144-4.594 5.756-5.313 0.55-0.15 1.594-0.313 2.012-0.313h0.294v-1.613l-0.006-1.606-0.181 0.438c-0.881 2.075-4.519 3.619-9.688 4.1-1.088 0.106-4.106 0.1-5.156 0-5.306-0.519-8.963-2.1-9.719-4.2l-0.119-0.338-0.006 2.456z"></path>
<path d="M23.594 17.669c-1.375 0.244-2.631 0.887-3.644 1.856-1.3 1.25-2.019 2.712-2.2 4.512-0.1 1 0.038 2.15 0.375 3.069 0.906 2.462 3.044 4.231 5.625 4.65 0.531 0.087 1.669 0.081 2.219-0.006 1.462-0.231 2.856-0.944 3.906-2 1.106-1.1 1.806-2.475 2.031-3.981 0.4-2.637-0.675-5.219-2.831-6.819-1.244-0.919-2.719-1.394-4.287-1.381-0.381 0.006-0.919 0.050-1.194 0.1zM23.969 22.313l0.875 0.875 1.781-1.781 0.762 0.769 0.769 0.762-1.781 1.781 1.75 1.75-1.5 1.5-1.75-1.75-0.863 0.863c-0.469 0.469-0.887 0.856-0.919 0.856s-0.394-0.331-0.794-0.731l-0.738-0.738 1.781-1.781-1.781-1.781 0.731-0.738c0.406-0.4 0.75-0.731 0.769-0.731s0.425 0.394 0.906 0.875z"></path>
<path d="M0.006 22.794c-0.006 2.694 0.013 2.837 0.4 3.456 0.981 1.563 4.044 2.9 7.844 3.431 2.881 0.406 6.419 0.356 9.106-0.125l0.394-0.069-0.113-0.169c-0.675-0.981-1.225-2.594-1.306-3.831-0.019-0.331-0.056-0.631-0.075-0.663-0.025-0.038-0.363-0.025-0.912 0.038-1.144 0.125-4.612 0.137-5.719 0.025-5.256-0.563-8.881-2.188-9.537-4.288-0.069-0.219-0.081 0.094-0.081 2.194z"></path>
</symbol>
<symbol id="icon-info" viewBox="0 0 32 32">
<path d="M14.813 0.044c-2.319 0.219-4.081 0.713-6.006 1.681-2.537 1.269-4.888 3.425-6.431 5.9-1.119 1.787-1.931 4.094-2.263 6.406-0.106 0.738-0.106 3.2 0 3.938 0.263 1.844 0.75 3.456 1.512 5 0.856 1.75 1.7 2.925 3.087 4.319 1.381 1.375 2.575 2.231 4.256 3.056 1.175 0.575 1.931 0.856 3.125 1.156 3.125 0.788 6.262 0.638 9.313-0.444 0.931-0.331 2.544-1.137 3.375-1.694 2.281-1.519 4.169-3.613 5.413-6.019 1.131-2.175 1.694-4.338 1.788-6.813 0.094-2.662-0.456-5.2-1.644-7.588-0.775-1.563-1.644-2.794-2.863-4.050-1.35-1.4-2.675-2.362-4.444-3.237-1.85-0.912-3.575-1.406-5.625-1.594-0.637-0.056-2.081-0.069-2.594-0.019zM18.819 6.181c0.431 0.206 0.7 0.463 0.938 0.894 0.194 0.362 0.212 0.438 0.212 0.925s-0.019 0.563-0.212 0.925c-0.238 0.438-0.438 0.625-0.906 0.875-0.269 0.137-0.4 0.162-0.85 0.162-0.488 0.006-0.563-0.012-0.925-0.206-0.431-0.231-0.681-0.5-0.9-0.944-0.2-0.412-0.194-1.225 0.012-1.656 0.262-0.537 0.769-0.95 1.344-1.1 0.306-0.081 0.988-0.013 1.288 0.125zM18.819 11.231c0.506 0.25 0.781 0.519 0.988 0.956 0.137 0.287 0.163 0.425 0.156 0.844-0.006 0.488-0.038 0.588-1.55 4.712-0.844 2.313-1.538 4.219-1.538 4.231s0.706 0.025 1.569 0.025h1.575l-0.044 0.356c-0.094 0.831-0.438 1.544-1.044 2.15-0.637 0.644-1.063 0.819-2.619 1.119-1.738 0.325-2.269 0.4-2.625 0.356-0.588-0.069-1.119-0.462-1.438-1.056-0.2-0.363-0.219-0.431-0.213-0.925l0.006-0.531 1.544-4.212c0.844-2.313 1.537-4.219 1.537-4.231s-0.7-0.025-1.563-0.025h-1.563v-0.175c0-0.094 0.044-0.35 0.094-0.569 0.244-1.012 0.981-1.881 2.044-2.406 0.931-0.463 2.706-0.863 3.712-0.831 0.494 0.012 0.625 0.044 0.969 0.213z"></path>
</symbol>
<symbol id="icon-cart" viewBox="0 0 32 32">
<path d="M1.025 1.275c-0.306 0.137-0.494 0.45-0.494 0.831 0 0.35 0.113 0.563 0.431 0.794 0.163 0.125 0.281 0.131 2.119 0.169 2.175 0.038 2.256 0.050 2.825 0.481 0.394 0.294 0.675 0.669 0.838 1.1 0.094 0.25 0.394 2.362 1.131 8 0.55 4.213 1 7.7 1 7.75s-0.131 0.113-0.369 0.156c-0.894 0.175-1.756 0.831-2.156 1.637-0.631 1.256-0.35 2.725 0.688 3.681 0.638 0.575 1.344 0.813 2.444 0.813 0.319 0 0.581 0.006 0.581 0.012 0 0.012-0.044 0.175-0.094 0.363-0.269 1.006 0.037 2.106 0.794 2.863 1.069 1.075 2.706 1.188 3.912 0.275 0.969-0.725 1.412-1.994 1.106-3.137-0.050-0.188-0.094-0.35-0.094-0.363 0-0.006 1.338-0.012 2.969-0.012s2.969 0.012 2.969 0.025c0 0.019-0.044 0.219-0.1 0.456-0.406 1.725 0.863 3.431 2.688 3.619 1.056 0.106 2.275-0.512 2.819-1.431 0.538-0.925 0.556-2.156 0.044-3.044-0.331-0.581-0.944-1.106-1.575-1.356-0.262-0.106-0.813-0.113-8.538-0.144l-8.25-0.031-0.256-0.169c-0.825-0.544-0.719-1.806 0.188-2.137 0.181-0.069 1.544-0.212 4.263-0.444 2.2-0.188 4.481-0.387 5.063-0.438 0.587-0.050 2.819-0.25 4.969-0.438s4.031-0.375 4.188-0.413c1.219-0.281 2.275-1.344 2.587-2.594 0.194-0.762 1.8-11.044 1.756-11.256-0.056-0.313-0.356-0.619-0.681-0.7-0.2-0.050-3.325-0.069-11.087-0.069h-10.8l-0.081-0.656c-0.037-0.362-0.137-0.881-0.213-1.144-0.394-1.344-1.456-2.45-2.825-2.931l-0.5-0.175-2.031-0.012c-1.625-0.012-2.069 0-2.225 0.069zM14.175 9.606c0.363 0.269 0.363 0.275 0.694 3.787 0.231 2.425 0.294 3.344 0.25 3.506-0.069 0.238-0.412 0.575-0.656 0.637-0.387 0.1-0.831-0.094-1.037-0.456-0.144-0.238-0.762-6.656-0.675-6.963 0.069-0.231 0.206-0.4 0.469-0.569 0.238-0.15 0.719-0.125 0.956 0.056zM19.806 9.563c0.169 0.081 0.288 0.206 0.375 0.394 0.131 0.262 0.131 0.344 0.131 3.581v3.306l-0.144 0.244c-0.369 0.644-1.319 0.613-1.631-0.050-0.094-0.2-0.1-0.569-0.087-3.613 0.019-3.394 0.019-3.394 0.156-3.588 0.275-0.387 0.769-0.5 1.2-0.275zM25.488 9.525c0.244 0.125 0.431 0.35 0.494 0.6 0.094 0.338-0.512 6.644-0.663 6.931-0.175 0.344-0.4 0.475-0.806 0.475-0.444 0-0.712-0.169-0.856-0.55-0.094-0.25-0.081-0.413 0.212-3.556 0.319-3.331 0.344-3.513 0.613-3.75 0.262-0.238 0.712-0.306 1.006-0.15zM13.537 26.913c0.35 0.281 0.475 0.55 0.444 0.975-0.063 1.050-1.331 1.425-2.006 0.594-0.325-0.406-0.287-1.087 0.075-1.438 0.3-0.281 0.512-0.363 0.9-0.337 0.287 0.012 0.406 0.056 0.588 0.206zM25.137 26.887c0.281 0.219 0.438 0.55 0.438 0.925-0.006 0.5-0.306 0.9-0.794 1.063-0.794 0.262-1.656-0.569-1.419-1.369 0.094-0.306 0.35-0.619 0.606-0.731 0.313-0.144 0.913-0.087 1.169 0.113z"></path>
</symbol>
</svg>
